<svg xmlns="http://www.w3.org/2000/svg" width="1680" height="1464" viewBox="0 0 1680 1464" version="1.1">
	<path d="M 1016.500 41.983 C 957.756 55.310, 917 104.674, 917 162.500 C 917 180.751, 920.460 196.412, 928.182 213.115 L 932.165 221.730 929.197 227.615 C 910.539 264.607, 913.335 311.321, 936.298 346.251 C 955.129 374.896, 983.467 394.099, 1018 401.617 C 1029.987 404.227, 1058.013 404.227, 1070 401.617 C 1092.951 396.621, 1114.678 385.716, 1129.722 371.644 L 1136.129 365.650 1119.325 348.825 C 1110.084 339.571, 1102.139 332, 1101.671 332 C 1101.203 332, 1098.419 334.138, 1095.485 336.750 C 1088.054 343.365, 1080.499 347.717, 1070.261 351.279 C 1062.617 353.939, 1059.778 354.384, 1048 354.773 C 1036.679 355.146, 1033.081 354.879, 1025.705 353.117 C 998.113 346.526, 977.043 326.700, 969.441 300.175 C 967.019 291.724, 966.806 289.640, 967.170 277.939 C 967.392 270.837, 968.006 264.608, 968.536 264.095 C 969.139 263.513, 972.634 265.026, 977.863 268.133 C 997.053 279.538, 1015.205 284.935, 1037 285.718 C 1058.349 286.485, 1071.723 283.503, 1084.779 275.065 C 1119.029 252.928, 1123.914 206.161, 1095.038 176.855 C 1088.958 170.685, 1085.664 168.267, 1078.946 165.046 C 1050.113 151.220, 1007.599 156.320, 974.280 177.602 L 969.060 180.937 967.844 176.718 C 966.022 170.396, 966.317 152.692, 968.369 145.169 C 979.536 104.238, 1021.142 80.472, 1064 90.544 C 1073.150 92.694, 1087.337 99.882, 1095.036 106.269 L 1101.571 111.691 1118.917 94.766 L 1136.262 77.842 1131.887 73.385 C 1118.135 59.373, 1094.388 47.103, 1071 41.925 C 1059.154 39.303, 1028.171 39.336, 1016.500 41.983 M 40 224 L 40 405 65.494 405 L 90.989 405 91.244 319.750 L 91.500 234.500 150.750 234.242 L 210 233.984 210 209.492 L 210 185 150.490 185 L 90.980 185 91.240 138.981 L 91.500 92.963 168.500 92.731 L 245.500 92.500 245.767 67.750 L 246.035 43 143.017 43 L 40 43 40 224 M 362.302 45.103 C 354.929 47.937, 347.719 54.793, 343.853 62.647 C 335.521 79.572, 343.210 100.713, 360.591 108.670 C 379.122 117.154, 401.042 107.763, 407.671 88.500 C 408.697 85.519, 409.378 80.593, 409.357 76.300 C 409.329 70.265, 408.807 68.049, 406.131 62.615 C 402.215 54.659, 395.003 47.893, 387.414 45.054 C 380.162 42.341, 369.432 42.361, 362.302 45.103 M 519.462 44.250 C 519.201 44.938, 519.102 126.275, 519.243 225 L 519.500 404.500 545.246 404.767 L 570.993 405.034 571.246 272.510 L 571.500 139.986 676.500 268.712 C 734.250 339.511, 783.024 399.149, 784.887 401.241 L 788.273 405.045 805.887 404.773 L 823.500 404.500 823.500 224 L 823.500 43.500 797.754 43.233 L 772.007 42.966 771.754 174.059 L 771.500 305.151 664 174.084 L 556.500 43.018 538.219 43.009 C 524.507 43.002, 519.818 43.312, 519.462 44.250 M 349 294.517 L 349 405.034 374.750 404.767 L 400.500 404.500 400.754 294.250 L 401.009 184 375.004 184 L 349 184 349 294.517 M 1028 208.885 C 1018.650 210.952, 1010.113 214.436, 1002.625 219.241 L 997.743 222.373 1000.121 224.331 C 1004.059 227.572, 1015.994 232.835, 1024.500 235.080 C 1035.570 238.003, 1050.929 238.183, 1056.487 235.456 C 1061.962 232.769, 1065 227.943, 1065 221.929 C 1065 216.572, 1062.095 212.135, 1056.794 209.394 C 1052.035 206.932, 1037.961 206.684, 1028 208.885 M 1527 556.586 C 1492.064 562.171, 1459.987 582.733, 1440.550 612 C 1427.272 631.994, 1420.635 654.202, 1420.674 678.500 C 1420.706 697.769, 1424.886 715.907, 1433.006 732.007 L 1435.783 737.513 1433.413 742.177 C 1423.271 762.134, 1418.651 786.649, 1421.003 808.029 C 1423.329 829.168, 1430.490 848.678, 1442.185 865.739 C 1448.939 875.592, 1463.311 889.995, 1473.047 896.667 C 1487.563 906.615, 1504.728 913.950, 1522.308 917.719 C 1533.929 920.209, 1561.286 920.188, 1573 917.679 C 1596.370 912.674, 1617.730 902.054, 1633.828 887.437 L 1640.157 881.690 1629.328 870.774 C 1623.373 864.770, 1615.484 857.163, 1611.797 853.868 L 1605.095 847.878 1598.297 853.502 C 1590.007 860.361, 1578.166 866.340, 1567.590 869.006 C 1557.890 871.451, 1541.334 871.674, 1530.992 869.498 C 1498.112 862.582, 1473.326 835.093, 1470.473 802.378 C 1469.880 795.582, 1471.166 780.501, 1472.448 779.219 C 1472.648 779.018, 1476.942 781.344, 1481.989 784.386 C 1492.328 790.620, 1503.045 795.029, 1517 798.792 C 1525.483 801.080, 1528.426 801.359, 1544.500 801.408 C 1564.354 801.467, 1570.208 800.433, 1581.377 794.892 C 1598.778 786.258, 1611.669 770.350, 1616.134 752 C 1618.387 742.740, 1617.744 727.788, 1614.711 718.904 C 1608.831 701.681, 1597.608 688.355, 1582.863 681.086 C 1555.183 667.442, 1514.746 671.675, 1481 691.751 L 1472.500 696.808 1471.601 694.154 C 1471.106 692.694, 1470.673 685.425, 1470.638 678 C 1470.580 665.746, 1470.830 663.761, 1473.345 656.500 C 1480.172 636.787, 1493.506 621.747, 1512.671 612.143 C 1539.881 598.508, 1575.970 602.815, 1598.832 622.426 C 1601.764 624.942, 1604.635 627, 1605.211 627 C 1605.788 627, 1613.891 619.462, 1623.218 610.250 L 1640.177 593.500 1634.486 588.304 C 1618.228 573.460, 1596.350 562.470, 1573 557.419 C 1562.343 555.113, 1538.871 554.688, 1527 556.586 M 366.230 558.495 C 355.407 561.522, 348.549 567.108, 343.792 576.771 C 340.807 582.835, 340.500 584.299, 340.500 592.479 C 340.500 600.842, 340.748 601.957, 343.899 607.768 C 347.975 615.286, 353.293 620.317, 360.880 623.837 C 365.458 625.960, 367.983 626.444, 374.500 626.444 C 384.075 626.444, 391.197 623.624, 398.405 616.981 C 410.910 605.454, 412.562 585.252, 402.132 571.397 C 393.674 560.162, 379.055 554.909, 366.230 558.495 M 40 742 L 40 923 145.500 923 L 251 923 251 897.988 L 251 872.977 171.250 873.012 L 91.500 873.047 91.247 717.024 L 90.994 561 65.497 561 L 40 561 40 742 M 519.667 561.667 C 519.300 562.033, 519 573.058, 519 586.167 L 519 610 567.997 610 L 616.994 610 617.247 766.250 L 617.500 922.500 643.250 922.767 L 669 923.034 669 766.517 L 669 610 718 610 L 767 610 767 585.500 L 767 561 643.667 561 C 575.833 561, 520.033 561.300, 519.667 561.667 M 834.667 561.667 C 834.300 562.033, 834 573.058, 834 586.167 L 834 610 882.997 610 L 931.994 610 932.247 766.250 L 932.500 922.500 958 922.500 L 983.500 922.500 983.753 766.250 L 984.006 610 1033.003 610 L 1082 610 1082 585.500 L 1082 561 958.667 561 C 890.833 561, 835.033 561.300, 834.667 561.667 M 1152.469 562.233 C 1152.204 562.930, 1152.102 644.275, 1152.243 743 L 1152.500 922.500 1258 922.500 L 1363.500 922.500 1363.500 898 L 1363.500 873.500 1283.753 873.244 L 1204.006 872.988 1203.753 717.244 L 1203.500 561.500 1178.225 561.233 C 1158.545 561.025, 1152.844 561.246, 1152.469 562.233 M 349 809.500 L 349 920.034 374.509 919.767 L 400.019 919.500 400.019 809.500 L 400.019 699.500 374.509 699.233 L 349 698.966 349 809.500 M 1532.500 724.426 C 1521.321 726.985, 1502 735.685, 1502 738.161 C 1502 739.484, 1513.533 745.790, 1520.500 748.277 C 1535.219 753.530, 1556.067 754.562, 1561.793 750.321 C 1571.079 743.443, 1571.253 731.410, 1562.147 725.782 C 1559.104 723.901, 1556.868 723.493, 1548.504 723.293 C 1542.697 723.153, 1535.983 723.629, 1532.500 724.426 M 40 1243.572 L 40 1424.143 110.250 1423.728 C 168.377 1423.385, 182.233 1423.037, 190.545 1421.710 C 205.523 1419.319, 217.727 1416.495, 228.164 1413.003 C 325.912 1380.304, 372.518 1260.233, 325.504 1162.227 C 301.037 1111.222, 257.277 1077.762, 201.722 1067.577 C 180.118 1063.616, 166.611 1063, 101.446 1063 L 40 1063 40 1243.572 M 448.059 1242.229 C 407.207 1340.828, 373.558 1422.063, 373.284 1422.750 C 372.893 1423.731, 378.575 1424, 399.726 1424 L 426.666 1424 445.583 1377.503 L 464.500 1331.005 540.500 1331.021 L 616.500 1331.037 635.500 1377.269 L 654.500 1423.500 681.323 1423.766 C 707.746 1424.029, 708.136 1424.003, 707.511 1422.034 C 707.162 1420.934, 673.647 1339.814, 633.033 1241.767 L 559.190 1063.500 540.763 1063.229 L 522.336 1062.957 448.059 1242.229 M 954 1064.625 C 945.579 1065.678, 935.527 1068.158, 928.160 1070.999 C 898.621 1082.390, 867.577 1118.825, 850.197 1162.500 C 846.401 1172.040, 839.300 1193.699, 837.002 1202.750 C 836.409 1205.088, 835.547 1207, 835.088 1207 C 834.629 1207, 829.797 1202.373, 824.349 1196.717 C 802.987 1174.538, 784.762 1144.728, 758.951 1089.750 C 753.851 1078.888, 749.303 1070, 748.843 1070 C 748.384 1070, 738.373 1074.572, 726.598 1080.161 L 705.189 1090.321 706.260 1092.911 C 706.849 1094.335, 714.851 1110.800, 724.041 1129.500 C 749.746 1181.806, 766.027 1207.200, 790 1232.377 C 797.441 1240.192, 813.250 1253.530, 820.031 1257.714 L 823.562 1259.893 822.834 1267.696 C 821.205 1285.164, 820.752 1338.076, 821.893 1377.500 C 822.546 1400.050, 823.323 1419.737, 823.619 1421.250 L 824.159 1424 848.693 1424 L 873.227 1424 872.648 1419.750 C 870.615 1404.817, 869.211 1282.284, 871.055 1280.666 C 871.300 1280.451, 876.225 1281.122, 882 1282.156 C 896.179 1284.696, 919.924 1284.859, 933.500 1282.510 C 965.976 1276.892, 990.818 1264.178, 1013.572 1241.530 C 1036.787 1218.422, 1050.461 1191.102, 1052.628 1163.500 C 1055.606 1125.559, 1029.870 1083.891, 995 1070.195 C 983.838 1065.811, 964.988 1063.250, 954 1064.625 M 91.246 1243.250 L 91.500 1374.500 119.500 1374.802 C 173.993 1375.389, 199.708 1371.872, 223.623 1360.562 C 235.135 1355.118, 243.253 1349.612, 252.157 1341.213 C 270.518 1323.892, 284.233 1298.320, 289.715 1271.182 C 292.223 1258.766, 292.208 1227.819, 289.688 1216 C 283.896 1188.837, 272.671 1166.966, 255.213 1148.829 C 241.899 1134.997, 227.563 1126.122, 209 1120.221 C 187.401 1113.356, 173.966 1112, 127.536 1112 L 90.993 1112 91.246 1243.250 M 955.500 1114.113 C 946.274 1115.449, 938.143 1120.002, 929.258 1128.808 C 908.017 1149.859, 894.493 1175.758, 884.165 1215.163 C 879.393 1233.373, 879.383 1231.609, 884.260 1232.825 C 900.248 1236.811, 920.840 1236.300, 937.381 1231.506 C 952.954 1226.993, 964.469 1220.298, 976.797 1208.588 C 995.614 1190.714, 1005.278 1168.210, 1001.996 1149.906 C 999.702 1137.111, 990.341 1123.225, 980.340 1117.781 C 976.427 1115.652, 964.357 1112.590, 962 1113.129 C 961.725 1113.192, 958.800 1113.635, 955.500 1114.113 M 512.931 1215.250 L 485.437 1281.500 540.376 1281.759 C 570.593 1281.901, 595.502 1281.831, 595.730 1281.603 C 595.958 1281.376, 584.120 1252.234, 569.424 1216.845 C 554.728 1181.455, 542.493 1151.713, 542.235 1150.750 C 541.978 1149.787, 541.465 1149, 541.096 1149 C 540.726 1149, 528.052 1178.813, 512.931 1215.250" stroke="none" fill="black" fill-rule="evenodd"/>
</svg>